<svg version="1.1" id="Layer_1___ELIMs3JB" xmlns="http://www.w3.org/2000/svg" xmlns:xlink="http://www.w3.org/1999/xlink" x="0px" y="0px" viewBox="0 0 298.9 238.6" style="enable-background:new 0 0 687.6 238.6;" xml:space="preserve">
<g>
	<g>
		<path style="fill:#FFF;" d="M262.1,201h-18.8l-21.5,30.7L177.4,201H65.2c-20.2,0-36.8-16.6-36.8-36.8V52.1
			c0-20.2,16.6-36.8,36.8-36.8h196.9c20.2,0,36.8,16.6,36.8,36.8v112.2C298.9,184.5,282.3,201,262.1,201z"></path>
		<g>
			<polygon style="fill:#282f2f;" points="163.3,66.3 131.1,124.4 195.7,124.4 			"></polygon>
			<polygon style="fill:#282f2f;" points="165,33.9 165,61.6 219.4,65.5 			"></polygon>
			<polygon style="fill:#282f2f;" points="161.5,33.9 161.5,61.9 107.6,65.5 			"></polygon>
			<polygon style="fill:#282f2f;" points="166.9,65.5 197.9,121.3 222.4,69.3 			"></polygon>
			<polygon style="fill:#282f2f;" points="223,77 223,135.5 200.3,125.3 			"></polygon>
			<polygon style="fill:#282f2f;" points="199.2,128.6 218.8,137.5 172.2,164.9 			"></polygon>
			<polygon style="fill:#282f2f;" points="194.7,128.3 164.1,169.3 131.6,128.3 			"></polygon>
			<polygon style="fill:#282f2f;" points="154.9,164.4 127.6,128.3 108,137.8 			"></polygon>
			<polygon style="fill:#282f2f;" points="128.7,121.3 159.7,65.5 104.6,69 			"></polygon>
			<polygon style="fill:#282f2f;" points="126.6,125.2 104.3,77 104.3,135.1 			"></polygon>
		</g>
	</g>
</g>
</svg>