<?xml version="1.0" encoding="UTF-8" ?>
<!DOCTYPE svg PUBLIC "-//W3C//DTD SVG 1.1//EN" "http://www.w3.org/Graphics/SVG/1.1/DTD/svg11.dtd">
<svg width="200pt" height="200pt" viewBox="0 0 200 200" version="1.1" xmlns="http://www.w3.org/2000/svg">
<g id="#000000ff">
<path fill="#FFFFFF" opacity="1.00" d=" M 84.70 16.75 C 89.11 14.26 93.39 11.47 98.10 9.55 C 98.27 19.66 98.19 29.77 98.15 39.88 C 78.78 42.30 59.39 44.51 40.02 46.95 C 37.53 47.27 35.01 47.38 32.50 47.27 C 34.15 45.99 35.86 44.80 37.67 43.75 C 53.36 34.78 69.02 25.75 84.70 16.75 Z" />
<path fill="#FFFFFF" opacity="1.00" d=" M 102.11 9.56 C 104.01 10.41 105.87 11.33 107.67 12.36 C 125.87 22.85 144.08 33.31 162.31 43.75 C 164.10 44.79 165.77 46.00 167.38 47.30 C 162.90 47.50 158.47 46.74 154.05 46.20 C 136.71 44.09 119.36 42.06 102.03 39.90 C 102.02 29.79 101.89 19.67 102.11 9.56 Z" />
<path fill="#FFFFFF" opacity="1.00" d=" M 28.00 52.02 C 50.69 49.41 73.33 46.45 96.02 43.94 C 95.15 45.74 94.24 47.52 93.25 49.26 C 81.03 70.38 68.84 91.51 56.63 112.63 C 54.26 116.72 52.04 120.91 49.29 124.76 C 40.16 103.44 31.44 81.95 22.39 60.60 C 21.71 58.78 20.66 56.68 21.70 54.77 C 22.86 52.43 25.76 52.34 28.00 52.02 Z" />
<path fill="#FFFFFF" opacity="1.00" d=" M 103.99 43.95 C 126.67 46.56 149.29 49.67 171.96 52.40 C 174.09 52.81 176.83 52.77 178.09 54.87 C 179.62 57.22 177.94 59.89 177.11 62.16 C 168.10 83.03 159.84 104.24 150.51 124.97 C 138.13 104.11 126.25 82.96 114.07 61.99 C 110.73 55.96 106.94 50.18 103.99 43.95 Z" />
<path fill="#FFFFFF" opacity="1.00" d=" M 97.01 51.04 C 97.95 49.43 98.96 47.86 100.00 46.31 C 102.57 50.08 104.74 54.10 107.03 58.04 C 117.99 77.04 128.95 96.04 139.91 115.04 C 142.22 119.05 144.70 122.99 146.57 127.24 C 123.04 127.59 99.51 127.29 75.98 127.39 C 68.47 127.32 60.96 127.57 53.45 127.21 C 54.34 125.23 55.31 123.29 56.39 121.41 C 69.96 97.97 83.47 74.50 97.01 51.04 M 83.87 83.97 C 80.60 86.62 81.09 91.22 80.90 94.98 C 82.69 94.98 84.48 94.99 86.27 94.99 C 86.36 93.14 86.32 91.28 86.64 89.45 C 86.92 87.12 90.31 86.73 91.70 88.30 C 92.83 90.63 92.43 93.38 91.69 95.77 C 89.74 101.32 84.10 104.48 81.92 109.89 C 80.75 112.91 81.06 116.22 80.92 119.39 C 86.55 119.39 92.17 119.39 97.80 119.39 C 97.80 117.65 97.80 115.92 97.79 114.19 C 93.95 114.19 90.10 114.21 86.25 114.13 C 87.34 108.15 92.92 104.87 95.78 99.88 C 98.12 95.96 99.02 90.92 97.28 86.61 C 95.12 81.62 87.89 80.89 83.87 83.97 M 107.35 82.52 C 103.11 83.40 101.11 87.95 101.39 91.94 C 101.55 99.14 100.97 106.40 101.74 113.58 C 103.04 121.19 115.28 122.04 118.14 115.15 C 119.62 110.93 118.82 106.35 119.00 101.98 C 118.81 97.13 119.56 92.16 118.37 87.40 C 116.98 82.88 111.52 81.35 107.35 82.52 Z" />
<path fill="#FFFFFF" opacity="1.00" d=" M 20.34 74.03 C 20.32 72.04 20.56 70.06 21.15 68.16 C 22.32 70.29 23.34 72.50 24.25 74.76 C 31.65 92.80 39.25 110.77 46.60 128.84 C 38.00 133.67 29.60 138.87 20.86 143.44 C 20.14 137.99 20.42 132.48 20.39 126.99 C 20.36 109.34 20.44 91.68 20.34 74.03 Z" />
<path fill="#FFFFFF" opacity="1.00" d=" M 178.79 68.04 C 180.01 71.56 179.56 75.33 179.61 78.99 C 179.58 94.97 179.60 110.95 179.60 126.94 C 179.56 132.37 179.84 137.83 179.11 143.23 C 170.39 138.71 161.97 133.61 153.38 128.83 C 159.85 112.87 166.52 97.00 173.07 81.08 C 174.93 76.71 176.50 72.21 178.79 68.04 Z" />
<path fill="#FFFFFF" opacity="1.00" d=" M 108.21 87.93 C 109.94 86.70 113.09 87.46 113.02 89.92 C 113.32 97.26 113.33 104.64 113.01 111.98 C 113.00 115.28 107.27 115.18 107.34 111.89 C 106.93 105.96 107.31 100.01 107.15 94.07 C 107.32 92.03 106.79 89.62 108.21 87.93 Z" />
<path fill="#FFFFFF" opacity="1.00" d=" M 53.32 131.64 C 61.53 131.11 69.76 131.50 77.98 131.39 C 100.87 131.54 123.78 131.07 146.67 131.63 C 133.14 150.01 118.92 167.89 105.21 186.15 C 103.83 187.78 102.47 190.13 100.01 190.02 C 97.54 190.12 96.15 187.77 94.76 186.13 C 81.05 167.89 66.87 150.00 53.32 131.64 Z" />
<path fill="#FFFFFF" opacity="1.00" d=" M 116.63 177.51 C 128.42 162.39 139.77 146.92 151.70 131.91 C 160.16 136.90 168.99 141.30 177.19 146.72 C 175.33 148.05 173.44 149.34 171.46 150.49 C 153.49 160.84 135.54 171.22 117.59 181.62 C 115.86 182.61 114.07 183.50 112.25 184.32 C 113.43 181.88 114.93 179.62 116.63 177.51 Z" />
<path fill="#FFFFFF" opacity="1.00" d=" M 22.95 146.90 C 31.25 141.55 40.04 137.00 48.60 132.09 C 59.18 145.94 69.76 159.78 80.33 173.63 C 82.95 177.08 85.89 180.36 87.74 184.32 C 83.44 182.46 79.50 179.90 75.44 177.60 C 59.77 168.58 44.13 159.51 28.45 150.52 C 26.54 149.43 24.72 148.19 22.95 146.90 Z" />
</g>
</svg>
